<?xml version="1.0" encoding="utf-8"?>
<!-- Generator: Adobe Illustrator 23.0.2, SVG Export Plug-In . SVG Version: 6.00 Build 0)  -->
<svg version="1.1" id="Camada_1" xmlns="http://www.w3.org/2000/svg" xmlns:xlink="http://www.w3.org/1999/xlink" x="0px" y="0px"
	 viewBox="0 0 16 20" style="enable-background:new 0 0 16 20;" xml:space="preserve">
<path d="M9.6,20H2c-1.1,0-2-0.9-2-2V2c0-1.1,0.9-2,2-2h1v7l2.5-1.5L8,7V0h6c1.1,0,2,0.9,2,2v11.5c-0.7-0.4-1.5-0.7-2.4-0.7
	c-2.6,0-4.7,2.1-4.7,4.7C8.9,18.4,9.2,19.3,9.6,20z M14.8,17.8v0.9c-0.1,0.1-0.3,0.2-0.6,0.4s-0.6,0.2-0.8,0.2
	c-0.3,0-0.6-0.1-0.9-0.2c-0.3-0.1-0.5-0.4-0.7-0.7c-0.2-0.3-0.2-0.7-0.2-1.1c0-0.4,0.1-0.7,0.2-1c0.1-0.2,0.2-0.3,0.3-0.5
	s0.3-0.3,0.5-0.4c0.2-0.1,0.5-0.1,0.8-0.1c0.3,0,0.5,0,0.7,0.1s0.4,0.2,0.5,0.4s0.2,0.3,0.3,0.6l0.6-0.2c-0.1-0.3-0.2-0.6-0.4-0.8
	s-0.4-0.4-0.7-0.5s-0.6-0.2-1-0.2c-0.5,0-0.9,0.1-1.3,0.3s-0.7,0.5-0.9,0.9s-0.3,0.9-0.3,1.4c0,0.5,0.1,0.9,0.3,1.3
	c0.2,0.4,0.5,0.7,0.9,0.9s0.8,0.3,1.3,0.3c0.4,0,0.7-0.1,1.1-0.2s0.7-0.3,1-0.6v-1.9l-2.1,0v0.6H14.8z"/>
</svg>
