<?xml version="1.0" encoding="utf-8"?>
<!-- Generator: Adobe Illustrator 23.0.2, SVG Export Plug-In . SVG Version: 6.00 Build 0)  -->
<svg version="1.1" id="Camada_1" xmlns="http://www.w3.org/2000/svg" xmlns:xlink="http://www.w3.org/1999/xlink" x="0px" y="0px"
	 viewBox="0 0 13.1 13.1" style="enable-background:new 0 0 13.1 13.1;" xml:space="preserve">
<path d="M9.4,8.3H8.8L8.6,8c0.7-0.9,1.2-2,1.2-3.2C9.8,2.2,7.6,0,4.9,0S0,2.2,0,4.9s2.2,4.9,4.9,4.9c1.2,0,2.3-0.4,3.2-1.2l0.2,0.2
	v0.6l3.8,3.7l1.1-1.1L9.4,8.3z M4.9,8.3C3,8.3,1.5,6.7,1.5,4.9S3,1.5,4.9,1.5S8.3,3,8.3,4.9S6.7,8.3,4.9,8.3z"/>
</svg>
