<?xml version="1.0" encoding="utf-8"?>
<!-- Generator: Adobe Illustrator 23.0.2, SVG Export Plug-In . SVG Version: 6.00 Build 0)  -->
<svg version="1.1" id="Camada_1" xmlns="http://www.w3.org/2000/svg" xmlns:xlink="http://www.w3.org/1999/xlink" x="0px" y="0px"
	 viewBox="0 0 19 20" style="enable-background:new 0 0 19 20;" xml:space="preserve">
<path d="M15.4,8.7L7,17.1V20H2c-1.1,0-2-0.9-2-2V2c0-1.1,0.9-2,2-2h1v7l2.5-1.5L8,7V0h6c1.1,0,2,0.9,2,2v6.3
	C15.8,8.4,15.6,8.6,15.4,8.7 M9,18v2h2l6.1-6.1l-2-2.1L9,18 M18.9,11.5l-1.3-1.3c-0.2-0.2-0.5-0.2-0.7,0l-1,1l2,2l1-1
	C19,12,19,11.7,18.9,11.5z"/>
</svg>
