<?xml version="1.0" encoding="utf-8"?>
<!-- Generator: Adobe Illustrator 23.0.2, SVG Export Plug-In . SVG Version: 6.00 Build 0)  -->
<svg version="1.1" id="Camada_1" xmlns="http://www.w3.org/2000/svg" xmlns:xlink="http://www.w3.org/1999/xlink" x="0px" y="0px"
	 viewBox="0 0 14 14.4" style="enable-background:new 0 0 14 14.4;" xml:space="preserve">
<path d="M12.4,7.9c0-0.2,0-0.5,0-0.7c0-0.2,0-0.5-0.1-0.7l1.5-1.2C14,5.2,14,5,14,4.9l-1.4-2.5c-0.1-0.2-0.3-0.2-0.4-0.2l-1.8,0.7
	C9.9,2.6,9.5,2.4,9.1,2.2L8.8,0.3C8.8,0.1,8.6,0,8.4,0H5.6C5.4,0,5.2,0.1,5.2,0.3L4.9,2.2C4.5,2.4,4.1,2.6,3.7,2.9L1.9,2.2
	c-0.2-0.1-0.4,0-0.4,0.2L0.1,4.9C0,5,0,5.2,0.1,5.3l1.5,1.2c0,0.2-0.1,0.5-0.1,0.7c0,0.2,0,0.5,0.1,0.7L0.1,9.1C0,9.2,0,9.4,0,9.5
	L1.5,12c0.1,0.2,0.3,0.2,0.4,0.2l1.8-0.7c0.4,0.3,0.8,0.5,1.2,0.7l0.3,1.9c0,0.2,0.2,0.3,0.4,0.3h2.9c0.2,0,0.3-0.1,0.4-0.3l0.3-1.9
	c0.4-0.2,0.8-0.4,1.2-0.7l1.8,0.7c0.2,0.1,0.4,0,0.4-0.2L14,9.5C14,9.4,14,9.2,13.9,9.1L12.4,7.9z M7,9.9c-1.5,0-2.7-1.2-2.7-2.7
	S5.5,4.5,7,4.5s2.7,1.2,2.7,2.7S8.5,9.9,7,9.9z"/>
</svg>
