<?xml version="1.0" encoding="utf-8"?>
<!-- Generator: Adobe Illustrator 23.0.2, SVG Export Plug-In . SVG Version: 6.00 Build 0)  -->
<svg version="1.1" id="Camada_1" xmlns="http://www.w3.org/2000/svg" xmlns:xlink="http://www.w3.org/1999/xlink" x="0px" y="0px"
	 viewBox="0 0 16 20" style="enable-background:new 0 0 16 20;" xml:space="preserve">
<path d="M14,0H8v7L5.5,5.5L3,7V0H2C0.9,0,0,0.9,0,2v16c0,1.1,0.9,2,2,2h12c1.1,0,2-0.9,2-2V2C16,0.9,15.1,0,14,0 M10,10
	c1.1,0,2,0.9,2,2s-0.9,2-2,2s-2-0.9-2-2S8.9,10,10,10 M14,18H6v-1c0-1.3,2.7-2,4-2s4,0.7,4,2V18z"/>
</svg>
