<?xml version="1.0" encoding="utf-8"?>
<!-- Generator: Adobe Illustrator 23.0.2, SVG Export Plug-In . SVG Version: 6.00 Build 0)  -->
<svg version="1.1" id="Camada_1" xmlns="http://www.w3.org/2000/svg" xmlns:xlink="http://www.w3.org/1999/xlink" x="0px" y="0px"
	 viewBox="0 0 16 18" style="enable-background:new 0 0 16 18;" xml:space="preserve">
<path d="M8,0C3.6,0,0,1.8,0,4s3.6,4,8,4s8-1.8,8-4S12.4,0,8,0 M0,6v3c0,2.2,3.6,4,8,4s8-1.8,8-4V6c0,2.2-3.6,4-8,4S0,8.2,0,6 M0,11
	v3c0,2.2,3.6,4,8,4s8-1.8,8-4v-3c0,2.2-3.6,4-8,4S0,13.2,0,11z"/>
</svg>
