<svg id="Camada_1" data-name="Camada 1" xmlns="http://www.w3.org/2000/svg" viewBox="0 0 241.44 80.26"><defs><style>.cls-1{fill:#4fa0ca;}.cls-2{fill:#2e58a6;}.cls-3{fill:#110b79;}.cls-4,.cls-5{fill:#0b0146;}.cls-5{font-size:40.48px;font-family:BerlinSansFB-Reg, Berlin Sans FB;}.cls-6{fill:#000;}</style></defs><title>logo-g-livros</title><g id="Logo"><path class="cls-1" d="M51.93,80.26V65.87c6-2.17,13.21-3.27,21.61-3.27,6.88,0,12.45.59,16.55,1.76v-11a83.69,83.69,0,0,0-34.64.08L35,73.82C41.82,74.8,47.47,76.93,51.93,80.26Z"/><path class="cls-1" d="M73.54,42.94c6.88,0,12.45.59,16.55,1.76v-11A82.39,82.39,0,0,0,76.8,32.05L65.52,43.33C68.06,43.08,70.72,42.94,73.54,42.94Z"/><path class="cls-1" d="M90.09,25.41V18.75l-5.45,5.46A49.41,49.41,0,0,1,90.09,25.41Z"/><path class="cls-2" d="M51.93,34.79V26.62c6-2.19,13.21-3.27,21.61-3.27a67.81,67.81,0,0,1,11.1.86l5.45-5.46V14a88.79,88.79,0,0,0-16.55-1.69,85.49,85.49,0,0,0-9,.45L.2,77.14a2.91,2.91,0,0,0,.56.76,2.72,2.72,0,0,0,1.6.57,2.16,2.16,0,0,0,.61-.1c.24-.09.43-.09.57-.14a51.94,51.94,0,0,1,22.43-5,62.92,62.92,0,0,1,9.06.64L55.45,53.4c-1.2.27-2.38.56-3.52.89v-8a56.84,56.84,0,0,1,13.59-2.91L76.8,32.05c-1.1,0-2.19-.08-3.26-.08A78.35,78.35,0,0,0,51.93,34.79Z"/><path class="cls-3" d="M51.93,15.25V7.08A36,36,0,0,0,35.71.74L0,36.45v39.8a2.07,2.07,0,0,0,.2.89L64.59,12.76A66.34,66.34,0,0,0,51.93,15.25Z"/><path class="cls-4" d="M26,0C15,0,6.33,2.36,0,7.08V36.45L35.71.74A63.1,63.1,0,0,0,26,0Z"/><text class="cls-5" transform="translate(98.71 53.07)">G.<tspan class="cls-6" x="36.01" y="0"> </tspan><tspan class="cls-2" x="46.13" y="0">Livros</tspan></text></g></svg>