<svg id="Camada_1" data-name="Camada 1" xmlns="http://www.w3.org/2000/svg" xmlns:xlink="http://www.w3.org/1999/xlink" viewBox="0 0 251.47 251.47"><defs><style>.cls-1{fill:#f7f7f7;}.cls-2{fill:url(#Gradiente_sem_nome_18);}.cls-3{fill:#fa8c36;}.cls-4{fill:#e57b32;}.cls-5{font-size:41.47px;fill:#d17639;font-family:HighTowerText-Reg, High Tower Text;}.cls-6{letter-spacing:0em;fill:#000;}.cls-7{fill:#141414;}.cls-8{fill:#f77c12;}</style><linearGradient id="Gradiente_sem_nome_18" x1="31.36" y1="43.15" x2="216.47" y2="205.13" gradientUnits="userSpaceOnUse"><stop offset="0" stop-color="#f2f2f2"/><stop offset="0.22" stop-color="#dedede"/><stop offset="0.65" stop-color="#acacac"/><stop offset="1" stop-color="gray"/></linearGradient></defs><title>Logo-book-manager</title><circle id="FundoProteção" class="cls-1" cx="125.74" cy="125.74" r="125.74"/><circle id="FundoDegrade" class="cls-2" cx="125.74" cy="125.74" r="121.37"/><g id="DesenhoInferior"><path class="cls-3" d="M128,197.44s-25.77-7.81-33.11-10.7-33.11-27.21-33.11-27.21L77.2,218,128,229.39Z" transform="translate(-2.26 -2.26)"/><path class="cls-4" d="M128,197.44s25.77-7.81,33.11-10.7,33.11-27.21,33.11-27.21L178.8,218,128,229.39Z" transform="translate(-2.26 -2.26)"/></g><g id="DesenhoSuperior"><path class="cls-4" d="M128,58.56s25.77,7.81,33.11,10.7,33.11,27.21,33.11,27.21L178.8,38,128,26.61Z" transform="translate(-2.26 -2.26)"/><path class="cls-3" d="M128,58.56s-25.77,7.81-33.11,10.7S61.78,96.47,61.78,96.47L77.2,38,128,26.61Z" transform="translate(-2.26 -2.26)"/></g><text class="cls-5" transform="translate(43.46 139.87)">G.<tspan class="cls-6" x="43.41" y="0"> </tspan><tspan class="cls-7" x="53.7" y="0">Livros</tspan></text><g id="Traço"><path class="cls-8" d="M46.37,147.3l42,.41,21,.25,10.5.12,5.26.07,2.62,0,2.63-.06c14-.33,28-.77,42-.9s28-.19,42,.08a.09.09,0,0,1,.09.09.09.09,0,0,1-.09.08c-14,.75-28,1.12-42,1.53s-28,.4-42,.55l-2.63,0-2.63-.07-5.25-.13-10.51-.26-21-.51-42-1.13a.08.08,0,0,1-.08-.09A.08.08,0,0,1,46.37,147.3Z" transform="translate(-2.26 -2.26)"/></g></svg>