<svg id="Camada_1" data-name="Camada 1" xmlns="http://www.w3.org/2000/svg" xmlns:xlink="http://www.w3.org/1999/xlink" viewBox="0 0 238.66 238.66"><defs><style>.cls-1{fill:url(#Gradiente_sem_nome_27);}.cls-2{fill:url(#Gradiente_sem_nome_22);}.cls-3{fill:#4fa0ca;}.cls-4{fill:#2e58a6;}.cls-5{fill:#110b79;}.cls-6{fill:#0b0146;}</style><radialGradient id="Gradiente_sem_nome_27" cx="119.33" cy="119.33" r="142.16" gradientUnits="userSpaceOnUse"><stop offset="0" stop-color="#e5e5e5"/><stop offset="0.48" stop-color="#e3e3e3"/><stop offset="0.65" stop-color="#dcdcdc"/><stop offset="0.77" stop-color="#d1d1d1"/><stop offset="0.87" stop-color="silver"/><stop offset="0.95" stop-color="#aaa"/><stop offset="1" stop-color="#999"/></radialGradient><linearGradient id="Gradiente_sem_nome_22" x1="30.95" y1="39.83" x2="207.08" y2="198.26" gradientUnits="userSpaceOnUse"><stop offset="0" stop-color="#e5e5e5"/><stop offset="0.19" stop-color="#ddd"/><stop offset="0.49" stop-color="#c8c8c8"/><stop offset="0.85" stop-color="#a6a6a6"/><stop offset="0.97" stop-color="#999"/></linearGradient></defs><title>logo-g-livros-icon</title><g id="Fundo"><circle class="cls-1" cx="119.33" cy="119.33" r="119.33"/><circle class="cls-2" cx="119.33" cy="119.33" r="115.21"/></g><g id="Logo"><path class="cls-3" d="M140,198v-25.1c10.53-3.77,23-5.71,37.67-5.71,12,0,21.71,1,28.87,3.09V151a146.52,146.52,0,0,0-60.42.13l-35.6,35.61C122.37,188.45,132.22,192.17,140,198Z" transform="translate(-8.67 -8.67)"/><path class="cls-3" d="M177.68,132.89c12,0,21.71,1,28.87,3.09V116.72a145.24,145.24,0,0,0-23.19-2.82l-19.67,19.68C168.12,133.14,172.77,132.89,177.68,132.89Z" transform="translate(-8.67 -8.67)"/><path class="cls-3" d="M206.55,102.34V90.71L197,100.23A84,84,0,0,1,206.55,102.34Z" transform="translate(-8.67 -8.67)"/><path class="cls-4" d="M140,118.69V104.43c10.53-3.81,23-5.69,37.67-5.69A119.34,119.34,0,0,1,197,100.23l9.52-9.52V82.44a147,147,0,0,0-44.48-2.18L49.8,192.54a4.56,4.56,0,0,0,1,1.32,4.8,4.8,0,0,0,2.79,1,4.16,4.16,0,0,0,1.07-.16,7.89,7.89,0,0,1,1-.25,90.46,90.46,0,0,1,39.11-8.81,110.46,110.46,0,0,1,15.8,1.11l35.6-35.61c-2.09.48-4.14,1-6.12,1.56v-14a99,99,0,0,1,23.68-5.08l19.67-19.68c-1.91-.07-3.82-.14-5.68-.14A136.1,136.1,0,0,0,140,118.69Z" transform="translate(-8.67 -8.67)"/><path class="cls-5" d="M140,84.61V70.37c-7.53-5.62-17-9.27-28.3-11.06L49.45,121.58V191a3.46,3.46,0,0,0,.35,1.56L162.07,80.26A116.64,116.64,0,0,0,140,84.61Z" transform="translate(-8.67 -8.67)"/><path class="cls-6" d="M94.73,58c-19.1,0-34.25,4.12-45.28,12.35v51.21l62.26-62.27A108.59,108.59,0,0,0,94.73,58Z" transform="translate(-8.67 -8.67)"/></g></svg>